<svg width="48" height="35" viewBox="0 0 48 35" fill="none" xmlns="http://www.w3.org/2000/svg">
<path d="M2.25482 19.0958C1.25485 14.5957 3.25485 5.42913 7.25482 4.09581C10.2548 3.09581 10.7545 8.0959 13.7547 7.5959C16.7548 7.0959 15.2548 2.97095 18.7548 2.09581C23.2548 0.970636 22.8959 10.1482 26.7548 9.09581C32.2548 7.59592 45.3375 6.00497 45.7548 10.5958C46.2548 16.0958 32.2548 22.0958 25.7548 23.5958C22.8316 24.2704 22.7548 33.0958 13.7547 33.0958" stroke="#FB8E10" stroke-width="3" stroke-linecap="round"/>
<ellipse cx="18.1887" cy="12.896" rx="1.5" ry="2" transform="rotate(-13.8066 18.1887 12.896)" fill="black"/>
<path d="M45.3882 10.6881C45.8267 12.4724 45.1449 14.1738 43.8655 14.4883C42.586 14.8027 41.1933 13.6111 40.7548 11.8267C40.3163 10.0424 40.9981 8.34095 42.2775 8.02653C43.557 7.7121 44.9497 8.90372 45.3882 10.6881Z" fill="black"/>
<ellipse cx="12.1887" cy="15.896" rx="1.5" ry="2" transform="rotate(-13.8066 12.1887 15.896)" fill="black"/>
</svg>
